<svg width="55" height="50" viewBox="0 0 55 50" fill="none" xmlns="http://www.w3.org/2000/svg">
<rect width="55" height="50" rx="10" fill="#4285F4"/>
<mask id="mask0_661_1360" style="mask-type:alpha" maskUnits="userSpaceOnUse" x="11" y="8" width="35" height="34">
<rect x="11.3823" y="8.08826" width="33.8235" height="33.8235" fill="#D9D9D9"/>
</mask>
<g mask="url(#mask0_661_1360)">
<path d="M19.2567 38.2652C18.7047 37.7132 18.4288 37.0496 18.4288 36.2745C18.4288 35.4994 18.7047 34.8358 19.2567 34.2838C19.8087 33.7319 20.4723 33.4559 21.2474 33.4559C22.0225 33.4559 22.6861 33.7319 23.238 34.2838C23.79 34.8358 24.066 35.4994 24.066 36.2745C24.066 37.0496 23.79 37.7132 23.238 38.2652C22.6861 38.8171 22.0225 39.0931 21.2474 39.0931C20.4723 39.0931 19.8087 38.8171 19.2567 38.2652ZM33.3499 38.2652C32.7979 37.7132 32.5219 37.0496 32.5219 36.2745C32.5219 35.4994 32.7979 34.8358 33.3499 34.2838C33.9018 33.7319 34.5654 33.4559 35.3405 33.4559C36.1156 33.4559 36.7792 33.7319 37.3312 34.2838C37.8832 34.8358 38.1591 35.4994 38.1591 36.2745C38.1591 37.0496 37.8832 37.7132 37.3312 38.2652C36.7792 38.8171 36.1156 39.0931 35.3405 39.0931C34.5654 39.0931 33.9018 38.8171 33.3499 38.2652ZM20.0495 16.5441L23.4318 23.5907H33.297L37.1726 16.5441H20.0495ZM18.7106 13.7255H39.498C40.0382 13.7255 40.4493 13.9662 40.7311 14.4478C41.013 14.9293 41.0248 15.4167 40.7664 15.9099L35.7633 24.9295C35.5049 25.3993 35.1585 25.7634 34.7239 26.0218C34.2894 26.2801 33.8138 26.4093 33.297 26.4093H22.7976L21.2474 29.2279H38.1591V32.0466H21.2474C20.1904 32.0466 19.3918 31.5827 18.8516 30.6549C18.3113 29.7271 18.2878 28.8051 18.7811 27.8891L20.6837 24.4363L15.6101 13.7255H12.7915V10.9069H17.3718L18.7106 13.7255Z" fill="white"/>
</g>
</svg>
