<svg width="32" height="32" viewBox="0 0 32 32" fill="none" xmlns="http://www.w3.org/2000/svg">
<mask id="mask0_683_1453" style="mask-type:alpha" maskUnits="userSpaceOnUse" x="0" y="0" width="32" height="32">
<rect width="32" height="32" fill="#D9D9D9"/>
</mask>
<g mask="url(#mask0_683_1453)">
<path d="M16 14.6667C14.8889 14.6667 13.9444 14.2778 13.1667 13.5C12.3889 12.7222 12 11.7778 12 10.6667C12 9.55558 12.3889 8.61113 13.1667 7.83335C13.9444 7.05558 14.8889 6.66669 16 6.66669C17.1111 6.66669 18.0556 7.05558 18.8333 7.83335C19.6111 8.61113 20 9.55558 20 10.6667C20 11.7778 19.6111 12.7222 18.8333 13.5C18.0556 14.2778 17.1111 14.6667 16 14.6667ZM6.66667 18.6667C5.93333 18.6667 5.30556 18.4056 4.78333 17.8834C4.26111 17.3611 4 16.7334 4 16V5.33335C4 4.60002 4.26111 3.97224 4.78333 3.45002C5.30556 2.9278 5.93333 2.66669 6.66667 2.66669H25.3333C26.0667 2.66669 26.6944 2.9278 27.2167 3.45002C27.7389 3.97224 28 4.60002 28 5.33335V16C28 16.7334 27.7389 17.3611 27.2167 17.8834C26.6944 18.4056 26.0667 18.6667 25.3333 18.6667H6.66667ZM9.33333 16H22.6667C22.6667 15.2667 22.9278 14.6389 23.45 14.1167C23.9722 13.5945 24.6 13.3334 25.3333 13.3334V8.00002C24.6 8.00002 23.9722 7.73891 23.45 7.21669C22.9278 6.69446 22.6667 6.06669 22.6667 5.33335H9.33333C9.33333 6.06669 9.07222 6.69446 8.55 7.21669C8.02778 7.73891 7.4 8.00002 6.66667 8.00002V13.3334C7.4 13.3334 8.02778 13.5945 8.55 14.1167C9.07222 14.6389 9.33333 15.2667 9.33333 16ZM16 29.3334L21.3333 24L19.4667 22.1334L17.3333 24.2667V20H14.6667V24.2667L12.5333 22.1334L10.6667 24L16 29.3334Z" fill="white"/>
</g>
</svg>
