<svg width="109" height="16" viewBox="0 0 109 16" fill="none" xmlns="http://www.w3.org/2000/svg">
<path d="M108.268 14.999C108.543 14.9819 108.753 14.7446 108.736 14.469L108.457 9.97765C108.44 9.70204 108.202 9.4925 107.927 9.50963C107.651 9.52677 107.441 9.76408 107.459 10.0397L107.707 14.032L103.714 14.2802C103.439 14.2973 103.229 14.5346 103.246 14.8102C103.264 15.0858 103.501 15.2954 103.777 15.2782L108.268 14.999ZM0.236816 14.5L0.473743 14.9403C24.6007 1.95753 48.8081 -0.406358 68.3249 1.65789C78.0837 2.69006 86.6648 4.82897 93.4698 7.29749C100.286 9.77024 105.285 12.5608 107.906 14.8748L108.237 14.5L108.568 14.1252C105.812 11.6921 100.68 8.84935 93.8108 6.35743C86.9297 3.86129 78.2694 1.70412 68.4301 0.663438C48.7505 -1.41803 24.3344 0.965256 -0.000110462 14.0597L0.236816 14.5Z" fill="#4285F4"/>
</svg>
