<svg width="139" height="18" viewBox="0 0 139 18" fill="none" xmlns="http://www.w3.org/2000/svg">
<path d="M137.797 0.443249C137.766 0.168891 137.518 -0.0281116 137.244 0.00323111L132.773 0.51399C132.499 0.545333 132.301 0.793152 132.333 1.06751C132.364 1.34187 132.612 1.53887 132.886 1.50753L136.861 1.05352L137.315 5.02767C137.346 5.30203 137.594 5.49903 137.868 5.46769C138.142 5.43635 138.339 5.18853 138.308 4.91417L137.797 0.443249ZM0.300537 0.5L-5.59986e-05 0.899554C20.3084 16.178 52.0337 19.5384 79.937 17.4302C93.9036 16.3749 106.949 13.9471 117.182 10.9344C122.299 9.4282 126.722 7.77304 130.209 6.06507C133.683 4.36396 136.281 2.58597 137.692 0.81114L137.301 0.5L136.909 0.18886C135.64 1.78552 133.206 3.48402 129.77 5.16697C126.347 6.84306 121.98 8.47953 116.9 9.97513C106.741 12.966 93.7653 15.3825 79.8616 16.433C52.0244 18.5362 20.61 15.1536 0.60113 0.100446L0.300537 0.5Z" fill="#C80ED9"/>
</svg>
