<svg width="41" height="41" viewBox="0 0 41 41" fill="none" xmlns="http://www.w3.org/2000/svg">
<mask id="mask0_554_1260" style="mask-type:alpha" maskUnits="userSpaceOnUse" x="0" y="0" width="41" height="41">
<rect width="41" height="41" fill="#D9D9D9"/>
</mask>
<g mask="url(#mask0_554_1260)">
<path d="M8.54167 37.5833C7.60208 37.5833 6.79774 37.2487 6.12865 36.5796C5.45955 35.9105 5.125 35.1062 5.125 34.1666V10.25C5.125 9.31038 5.45955 8.50604 6.12865 7.83694C6.79774 7.16784 7.60208 6.83329 8.54167 6.83329H10.25V3.41663H13.6667V6.83329H27.3333V3.41663H30.75V6.83329H32.4583C33.3979 6.83329 34.2023 7.16784 34.8714 7.83694C35.5405 8.50604 35.875 9.31038 35.875 10.25V34.1666C35.875 35.1062 35.5405 35.9105 34.8714 36.5796C34.2023 37.2487 33.3979 37.5833 32.4583 37.5833H8.54167ZM8.54167 34.1666H32.4583V17.0833H8.54167V34.1666ZM8.54167 13.6666H32.4583V10.25H8.54167V13.6666ZM20.5 23.9166C20.016 23.9166 19.6102 23.7529 19.2828 23.4255C18.9554 23.0981 18.7917 22.6923 18.7917 22.2083C18.7917 21.7243 18.9554 21.3185 19.2828 20.9911C19.6102 20.6637 20.016 20.5 20.5 20.5C20.984 20.5 21.3898 20.6637 21.7172 20.9911C22.0446 21.3185 22.2083 21.7243 22.2083 22.2083C22.2083 22.6923 22.0446 23.0981 21.7172 23.4255C21.3898 23.7529 20.984 23.9166 20.5 23.9166ZM12.4495 23.4255C12.122 23.0981 11.9583 22.6923 11.9583 22.2083C11.9583 21.7243 12.122 21.3185 12.4495 20.9911C12.7769 20.6637 13.1826 20.5 13.6667 20.5C14.1507 20.5 14.5564 20.6637 14.8839 20.9911C15.2113 21.3185 15.375 21.7243 15.375 22.2083C15.375 22.6923 15.2113 23.0981 14.8839 23.4255C14.5564 23.7529 14.1507 23.9166 13.6667 23.9166C13.1826 23.9166 12.7769 23.7529 12.4495 23.4255ZM27.3333 23.9166C26.8493 23.9166 26.4436 23.7529 26.1161 23.4255C25.7887 23.0981 25.625 22.6923 25.625 22.2083C25.625 21.7243 25.7887 21.3185 26.1161 20.9911C26.4436 20.6637 26.8493 20.5 27.3333 20.5C27.8174 20.5 28.2231 20.6637 28.5505 20.9911C28.878 21.3185 29.0417 21.7243 29.0417 22.2083C29.0417 22.6923 28.878 23.0981 28.5505 23.4255C28.2231 23.7529 27.8174 23.9166 27.3333 23.9166ZM20.5 30.75C20.016 30.75 19.6102 30.5862 19.2828 30.2588C18.9554 29.9314 18.7917 29.5257 18.7917 29.0416C18.7917 28.5576 18.9554 28.1519 19.2828 27.8244C19.6102 27.497 20.016 27.3333 20.5 27.3333C20.984 27.3333 21.3898 27.497 21.7172 27.8244C22.0446 28.1519 22.2083 28.5576 22.2083 29.0416C22.2083 29.5257 22.0446 29.9314 21.7172 30.2588C21.3898 30.5862 20.984 30.75 20.5 30.75ZM12.4495 30.2588C12.122 29.9314 11.9583 29.5257 11.9583 29.0416C11.9583 28.5576 12.122 28.1519 12.4495 27.8244C12.7769 27.497 13.1826 27.3333 13.6667 27.3333C14.1507 27.3333 14.5564 27.497 14.8839 27.8244C15.2113 28.1519 15.375 28.5576 15.375 29.0416C15.375 29.5257 15.2113 29.9314 14.8839 30.2588C14.5564 30.5862 14.1507 30.75 13.6667 30.75C13.1826 30.75 12.7769 30.5862 12.4495 30.2588ZM27.3333 30.75C26.8493 30.75 26.4436 30.5862 26.1161 30.2588C25.7887 29.9314 25.625 29.5257 25.625 29.0416C25.625 28.5576 25.7887 28.1519 26.1161 27.8244C26.4436 27.497 26.8493 27.3333 27.3333 27.3333C27.8174 27.3333 28.2231 27.497 28.5505 27.8244C28.878 28.1519 29.0417 28.5576 29.0417 29.0416C29.0417 29.5257 28.878 29.9314 28.5505 30.2588C28.2231 30.5862 27.8174 30.75 27.3333 30.75Z" fill="#9747FF"/>
</g>
</svg>
