<svg width="34" height="31" viewBox="0 0 34 31" fill="none" xmlns="http://www.w3.org/2000/svg">
<rect width="34" height="31" rx="10" fill="#FBBC05"/>
<mask id="mask0_658_1209" style="mask-type:alpha" maskUnits="userSpaceOnUse" x="5" y="4" width="24" height="24">
<rect x="5" y="4" width="24" height="24" fill="#D9D9D9"/>
</mask>
<g mask="url(#mask0_658_1209)">
<path d="M8 24C7.45 24 6.97917 23.8042 6.5875 23.4125C6.19583 23.0208 6 22.55 6 22V11H8V22H25V24H8ZM12 20C11.45 20 10.9792 19.8042 10.5875 19.4125C10.1958 19.0208 10 18.55 10 18V10C10 9.45 10.1958 8.97917 10.5875 8.5875C10.9792 8.19583 11.45 8 12 8H26C26.55 8 27.0208 8.19583 27.4125 8.5875C27.8042 8.97917 28 9.45 28 10V18C28 18.55 27.8042 19.0208 27.4125 19.4125C27.0208 19.8042 26.55 20 26 20H12ZM14 18C14 17.45 13.8042 16.9792 13.4125 16.5875C13.0208 16.1958 12.55 16 12 16V18H14ZM24 18H26V16C25.45 16 24.9792 16.1958 24.5875 16.5875C24.1958 16.9792 24 17.45 24 18ZM19 17C19.8333 17 20.5417 16.7083 21.125 16.125C21.7083 15.5417 22 14.8333 22 14C22 13.1667 21.7083 12.4583 21.125 11.875C20.5417 11.2917 19.8333 11 19 11C18.1667 11 17.4583 11.2917 16.875 11.875C16.2917 12.4583 16 13.1667 16 14C16 14.8333 16.2917 15.5417 16.875 16.125C17.4583 16.7083 18.1667 17 19 17ZM12 12C12.55 12 13.0208 11.8042 13.4125 11.4125C13.8042 11.0208 14 10.55 14 10H12V12ZM26 12V10H24C24 10.55 24.1958 11.0208 24.5875 11.4125C24.9792 11.8042 25.45 12 26 12Z" fill="white"/>
</g>
</svg>
