<svg width="34" height="31" viewBox="0 0 34 31" fill="none" xmlns="http://www.w3.org/2000/svg">
<rect width="34" height="31" rx="10" fill="#9747FF"/>
<path d="M22.7285 18.4688C23.1074 19.0779 23.5073 19.6291 24.0059 20.1533C24.5585 20.7344 25.2151 21.2637 26.0645 21.8115C25.6463 22.0999 25.2405 22.4226 24.8174 22.8291C24.2066 23.4159 23.5737 24.163 22.8096 25.207C21.7245 23.7062 20.7658 22.7733 19.3809 21.7783C20.8673 20.65 21.7808 19.7243 22.7285 18.4688Z" stroke="white" stroke-width="1.6"/>
<path d="M12.9092 6.85352C13.611 8.02689 14.3293 9.05524 15.252 10.0254C16.2409 11.0652 17.4384 12.0098 19.0508 13.0107C18.2123 13.5564 17.4234 14.158 16.5928 14.9561C15.5226 15.9842 14.4046 17.3194 13.0137 19.249C11.0182 16.4186 9.33709 14.7936 6.7373 12.9717C9.56598 10.8657 11.1626 9.23009 12.9092 6.85352Z" stroke="white" stroke-width="2"/>
</svg>
