<svg width="55" height="50" viewBox="0 0 55 50" fill="none" xmlns="http://www.w3.org/2000/svg">
<rect width="55" height="50" rx="10" fill="#89C75F"/>
<mask id="mask0_661_1351" style="mask-type:alpha" maskUnits="userSpaceOnUse" x="10" y="8" width="35" height="35">
<rect x="10.2939" y="8.35294" width="34.5588" height="34.5588" fill="#D9D9D9"/>
</mask>
<g mask="url(#mask0_661_1351)">
<path d="M26.2779 35.712H28.7978V33.912C29.9977 33.6961 31.0297 33.2281 31.8937 32.5081C32.7577 31.7881 33.1896 30.7202 33.1896 29.3042C33.1896 28.2962 32.9016 27.3723 32.3257 26.5323C31.7497 25.6923 30.5977 24.9604 28.8698 24.3364C27.4298 23.8564 26.4339 23.4364 25.8819 23.0764C25.3299 22.7164 25.0539 22.2244 25.0539 21.6005C25.0539 20.9765 25.2759 20.4845 25.7199 20.1245C26.1639 19.7645 26.8059 19.5845 27.6458 19.5845C28.4138 19.5845 29.0138 19.7705 29.4458 20.1425C29.8777 20.5145 30.1897 20.9765 30.3817 21.5285L32.6857 20.5925C32.4217 19.7525 31.9357 19.0206 31.2277 18.3966C30.5197 17.7726 29.7338 17.4246 28.8698 17.3526V15.5527H26.3499V17.3526C25.1499 17.6166 24.2139 18.1446 23.542 18.9366C22.87 19.7285 22.534 20.6165 22.534 21.6005C22.534 22.7284 22.864 23.6404 23.524 24.3364C24.1839 25.0324 25.2219 25.6323 26.6379 26.1363C28.1498 26.6883 29.1998 27.1803 29.7878 27.6123C30.3757 28.0442 30.6697 28.6082 30.6697 29.3042C30.6697 30.0962 30.3877 30.6782 29.8238 31.0501C29.2598 31.4221 28.5818 31.6081 27.7898 31.6081C26.9978 31.6081 26.2959 31.3621 25.6839 30.8702C25.0719 30.3782 24.6219 29.6402 24.3339 28.6562L21.958 29.5922C22.294 30.7442 22.816 31.6741 23.524 32.3821C24.2319 33.0901 25.1499 33.5761 26.2779 33.84V35.712ZM27.5738 40.0318C25.5819 40.0318 23.71 39.6539 21.958 38.8979C20.2061 38.1419 18.6821 37.1159 17.3862 35.82C16.0902 34.524 15.0643 33.0001 14.3083 31.2481C13.5523 29.4962 13.1743 27.6243 13.1743 25.6323C13.1743 23.6404 13.5523 21.7685 14.3083 20.0165C15.0643 18.2646 16.0902 16.7406 17.3862 15.4447C18.6821 14.1487 20.2061 13.1228 21.958 12.3668C23.71 11.6108 25.5819 11.2328 27.5738 11.2328C29.5658 11.2328 31.4377 11.6108 33.1896 12.3668C34.9416 13.1228 36.4655 14.1487 37.7615 15.4447C39.0574 16.7406 40.0834 18.2646 40.8394 20.0165C41.5954 21.7685 41.9733 23.6404 41.9733 25.6323C41.9733 27.6243 41.5954 29.4962 40.8394 31.2481C40.0834 33.0001 39.0574 34.524 37.7615 35.82C36.4655 37.1159 34.9416 38.1419 33.1896 38.8979C31.4377 39.6539 29.5658 40.0318 27.5738 40.0318ZM27.5738 37.1519C30.7897 37.1519 33.5136 36.036 35.7456 33.8041C37.9775 31.5721 39.0934 28.8482 39.0934 25.6323C39.0934 22.4164 37.9775 19.6925 35.7456 17.4606C33.5136 15.2287 30.7897 14.1127 27.5738 14.1127C24.3579 14.1127 21.634 15.2287 19.4021 17.4606C17.1702 19.6925 16.0542 22.4164 16.0542 25.6323C16.0542 28.8482 17.1702 31.5721 19.4021 33.8041C21.634 36.036 24.3579 37.1519 27.5738 37.1519Z" fill="white"/>
</g>
</svg>
