<svg width="23" height="23" viewBox="0 0 23 23" fill="none" xmlns="http://www.w3.org/2000/svg">
<mask id="mask0_766_1246" style="mask-type:alpha" maskUnits="userSpaceOnUse" x="0" y="0" width="23" height="23">
<rect width="23" height="23" fill="#D9D9D9"/>
</mask>
<g mask="url(#mask0_766_1246)">
<path d="M7.30762 6.13335L9.99095 2.6594C10.1826 2.40384 10.4102 2.21617 10.6738 2.09637C10.9373 1.97658 11.2128 1.91669 11.5003 1.91669C11.7878 1.91669 12.0633 1.97658 12.3269 2.09637C12.5904 2.21617 12.818 2.40384 13.0097 2.6594L15.693 6.13335L19.7659 7.49898C20.1812 7.62676 20.5087 7.86235 20.7482 8.20575C20.9878 8.54915 21.1076 8.92849 21.1076 9.34377C21.1076 9.53544 21.0797 9.7271 21.0238 9.91877C20.9679 10.1104 20.876 10.2941 20.7482 10.4698L18.1128 14.2073L18.2087 18.1365C18.2246 18.6955 18.041 19.1667 17.6576 19.55C17.2743 19.9334 16.8271 20.125 16.316 20.125C16.284 20.125 16.1083 20.1011 15.7889 20.0531L11.5003 18.8552L7.21178 20.0531C7.13192 20.0851 7.04408 20.1051 6.94824 20.113C6.85241 20.121 6.76456 20.125 6.6847 20.125C6.17359 20.125 5.72637 19.9334 5.34303 19.55C4.9597 19.1667 4.77602 18.6955 4.79199 18.1365L4.88783 14.1834L2.27637 10.4698C2.14859 10.2941 2.05675 10.1104 2.00085 9.91877C1.94494 9.7271 1.91699 9.53544 1.91699 9.34377C1.91699 8.94446 2.03279 8.57311 2.26439 8.22971C2.49599 7.8863 2.81942 7.64273 3.2347 7.49898L7.30762 6.13335ZM8.48158 7.78648L3.83366 9.31981L6.80449 13.6084L6.70866 18.1844L11.5003 16.8667L16.292 18.2084L16.1962 13.6084L19.167 9.36773L14.5191 7.78648L11.5003 3.83335L8.48158 7.78648Z" fill="white"/>
</g>
</svg>
