<svg width="34" height="34" viewBox="0 0 34 34" fill="none" xmlns="http://www.w3.org/2000/svg">
<mask id="mask0_661_1333" style="mask-type:alpha" maskUnits="userSpaceOnUse" x="0" y="0" width="34" height="34">
<rect width="33.8235" height="33.8235" fill="#D9D9D9"/>
</mask>
<g mask="url(#mask0_661_1333)">
<path d="M7.87441 30.1769C7.32242 29.6249 7.04643 28.9614 7.04643 28.1862C7.04643 27.4111 7.32242 26.7476 7.87441 26.1956C8.42639 25.6436 9.08994 25.3676 9.86506 25.3676C10.6402 25.3676 11.3037 25.6436 11.8557 26.1956C12.4077 26.7476 12.6837 27.4111 12.6837 28.1862C12.6837 28.9614 12.4077 29.6249 11.8557 30.1769C11.3037 30.7289 10.6402 31.0049 9.86506 31.0049C9.08994 31.0049 8.42639 30.7289 7.87441 30.1769ZM21.9675 30.1769C21.4156 29.6249 21.1396 28.9614 21.1396 28.1862C21.1396 27.4111 21.4156 26.7476 21.9675 26.1956C22.5195 25.6436 23.1831 25.3676 23.9582 25.3676C24.7333 25.3676 25.3969 25.6436 25.9489 26.1956C26.5008 26.7476 26.7768 27.4111 26.7768 28.1862C26.7768 28.9614 26.5008 29.6249 25.9489 30.1769C25.3969 30.7289 24.7333 31.0049 23.9582 31.0049C23.1831 31.0049 22.5195 30.7289 21.9675 30.1769ZM8.66715 8.45586L12.0495 15.5024H21.9147L25.7903 8.45586H8.66715ZM7.3283 5.63723H28.1157C28.6559 5.63723 29.067 5.87799 29.3488 6.3595C29.6307 6.84102 29.6424 7.32841 29.3841 7.82167L24.381 16.8413C24.1226 17.311 23.7762 17.6751 23.3416 17.9335C22.9071 18.1919 22.4314 18.3211 21.9147 18.3211H11.4153L9.86506 21.1397H26.7768V23.9583H9.86506C8.80808 23.9583 8.00947 23.4944 7.46923 22.5666C6.92899 21.6388 6.9055 20.7169 7.39876 19.8008L9.30134 16.348L4.22781 5.63723H1.40918V2.8186H5.98945L7.3283 5.63723Z" fill="white"/>
</g>
</svg>
