<svg width="34" height="34" viewBox="0 0 34 34" fill="none" xmlns="http://www.w3.org/2000/svg">
<mask id="mask0_676_1605" style="mask-type:alpha" maskUnits="userSpaceOnUse" x="0" y="0" width="34" height="34">
<rect width="34" height="34" fill="#D9D9D9"/>
</mask>
<g mask="url(#mask0_676_1605)">
<path fill-rule="evenodd" clip-rule="evenodd" d="M16.9997 28.3333C20.1636 28.3333 22.8434 27.2354 25.0393 25.0396C27.2351 22.8438 28.333 20.1639 28.333 17C28.333 13.8361 27.2351 11.1563 25.0393 8.96043C22.8434 6.76459 20.1636 5.66668 16.9997 5.66668C13.8358 5.66668 11.1559 6.76459 8.96009 8.96043C6.76426 11.1563 5.66634 13.8361 5.66634 17C5.66634 20.1639 6.76426 22.8438 8.96009 25.0396C11.1559 27.2354 13.8358 28.3333 16.9997 28.3333ZM25.0038 13.5292L15.0163 23.5167L8.99551 17.4958L10.9788 15.5125L15.0163 19.55L23.0205 11.5458L25.0038 13.5292Z" fill="#9747FF"/>
<path fill-rule="evenodd" clip-rule="evenodd" d="M11.4747 30.0511C13.1983 30.7948 15.04 31.1667 16.9997 31.1667C18.9594 31.1667 20.8011 30.7948 22.5247 30.0511C24.2483 29.3073 25.7476 28.2979 27.0226 27.0229C28.2976 25.7479 29.307 24.2486 30.0507 22.525C30.7945 20.8014 31.1663 18.9597 31.1663 17C31.1663 15.0403 30.7945 13.1986 30.0507 11.475C29.307 9.7514 28.2976 8.25209 27.0226 6.97709C25.7476 5.70209 24.2483 4.69272 22.5247 3.94897C20.8011 3.20522 18.9594 2.83334 16.9997 2.83334C15.04 2.83334 13.1983 3.20522 11.4747 3.94897C9.75106 4.69272 8.25176 5.70209 6.97676 6.97709C5.70176 8.25209 4.69238 9.7514 3.94863 11.475C3.20488 13.1986 2.83301 15.0403 2.83301 17C2.83301 18.9597 3.20488 20.8014 3.94863 22.525C4.69238 24.2486 5.70176 25.7479 6.97676 27.0229C8.25176 28.2979 9.75106 29.3073 11.4747 30.0511ZM25.0393 25.0396C22.8434 27.2354 20.1636 28.3333 16.9997 28.3333C13.8358 28.3333 11.1559 27.2354 8.96009 25.0396C6.76426 22.8438 5.66634 20.1639 5.66634 17C5.66634 13.8361 6.76426 11.1563 8.96009 8.96043C11.1559 6.76459 13.8358 5.66668 16.9997 5.66668C20.1636 5.66668 22.8434 6.76459 25.0393 8.96043C27.2351 11.1563 28.333 13.8361 28.333 17C28.333 20.1639 27.2351 22.8438 25.0393 25.0396Z" fill="#9747FF"/>
</g>
</svg>
