<svg width="33" height="33" viewBox="0 0 33 33" fill="none" xmlns="http://www.w3.org/2000/svg">
<mask id="mask0_679_1955" style="mask-type:alpha" maskUnits="userSpaceOnUse" x="0" y="0" width="33" height="33">
<rect width="33" height="33" fill="#D9D9D9"/>
</mask>
<g mask="url(#mask0_679_1955)">
<path d="M21.0375 14.0938L25.8844 9.2125L24.9219 8.25L21.0375 12.1344L19.0781 10.175L18.1156 11.1719L21.0375 14.0938ZM4.125 27.5V24.75H20.625V27.5H4.125ZM17.1359 15.8641C15.7953 14.5234 15.125 12.9021 15.125 11C15.125 9.09792 15.7953 7.47656 17.1359 6.13594C18.4766 4.79531 20.0979 4.125 22 4.125C23.9021 4.125 25.5234 4.79531 26.8641 6.13594C28.2047 7.47656 28.875 9.09792 28.875 11C28.875 12.9021 28.2047 14.5234 26.8641 15.8641C25.5234 17.2047 23.9021 17.875 22 17.875C20.0979 17.875 18.4766 17.2047 17.1359 15.8641ZM4.125 16.5V13.75H12.7875C12.9479 14.2542 13.1313 14.7354 13.3375 15.1938C13.5438 15.6521 13.7958 16.0875 14.0938 16.5H4.125ZM4.125 22V19.25H17.05C17.5771 19.5708 18.1385 19.8401 18.7344 20.0578C19.3302 20.2755 19.9604 20.4302 20.625 20.5219V22H4.125Z" fill="#1C1B1F"/>
</g>
</svg>
