<svg width="54" height="54" viewBox="0 0 54 54" fill="none" xmlns="http://www.w3.org/2000/svg">
<mask id="mask0_675_1588" style="mask-type:alpha" maskUnits="userSpaceOnUse" x="0" y="0" width="54" height="54">
<rect width="54" height="54" fill="#D9D9D9"/>
</mask>
<g mask="url(#mask0_675_1588)">
<path d="M13.5 31.5C13.5 33.45 13.8938 35.2969 14.6813 37.0406C15.4688 38.7844 16.5938 40.3125 18.0563 41.625C18.0188 41.4375 18 41.2688 18 41.1188V40.6125C18 39.4125 18.225 38.2875 18.675 37.2375C19.125 36.1875 19.7812 35.2313 20.6438 34.3688L27 28.125L33.3562 34.3688C34.2188 35.2313 34.875 36.1875 35.325 37.2375C35.775 38.2875 36 39.4125 36 40.6125V41.1188C36 41.2688 35.9813 41.4375 35.9438 41.625C37.4062 40.3125 38.5312 38.7844 39.3188 37.0406C40.1063 35.2969 40.5 33.45 40.5 31.5C40.5 29.625 40.1531 27.8531 39.4594 26.1844C38.7656 24.5156 37.7625 23.025 36.45 21.7125C35.7 22.2 34.9125 22.5656 34.0875 22.8094C33.2625 23.0531 32.4188 23.175 31.5563 23.175C29.2313 23.175 27.2156 22.4062 25.5094 20.8688C23.8031 19.3313 22.8188 17.4375 22.5563 15.1875C21.0938 16.425 19.8 17.7094 18.675 19.0406C17.55 20.3719 16.6031 21.7219 15.8344 23.0906C15.0656 24.4594 14.4844 25.8563 14.0906 27.2812C13.6969 28.7062 13.5 30.1125 13.5 31.5ZM27 34.425L23.7938 37.575C23.3813 37.9875 23.0625 38.4562 22.8375 38.9813C22.6125 39.5062 22.5 40.05 22.5 40.6125C22.5 41.8125 22.9406 42.8438 23.8219 43.7063C24.7031 44.5688 25.7625 45 27 45C28.2375 45 29.2969 44.5688 30.1781 43.7063C31.0594 42.8438 31.5 41.8125 31.5 40.6125C31.5 40.0125 31.3875 39.4594 31.1625 38.9531C30.9375 38.4469 30.6187 37.9875 30.2063 37.575L27 34.425ZM27 6.75V14.175C27 15.45 27.4406 16.5188 28.3219 17.3812C29.2031 18.2437 30.2813 18.675 31.5563 18.675C32.2313 18.675 32.8594 18.5344 33.4406 18.2531C34.0219 17.9719 34.5375 17.55 34.9875 16.9875L36 15.75C38.775 17.325 40.9688 19.5188 42.5812 22.3313C44.1937 25.1438 45 28.2 45 31.5C45 36.525 43.2563 40.7813 39.7688 44.2688C36.2812 47.7563 32.025 49.5 27 49.5C21.975 49.5 17.7188 47.7563 14.2313 44.2688C10.7437 40.7813 9 36.525 9 31.5C9 26.6625 10.6219 22.0688 13.8656 17.7188C17.1094 13.3687 21.4875 9.7125 27 6.75Z" fill="white"/>
</g>
</svg>
