<svg width="26" height="26" viewBox="0 0 26 26" fill="none" xmlns="http://www.w3.org/2000/svg">
<mask id="mask0_678_1720" style="mask-type:alpha" maskUnits="userSpaceOnUse" x="0" y="0" width="26" height="26">
<rect width="25.9057" height="25.9057" fill="#D9D9D9"/>
</mask>
<g mask="url(#mask0_678_1720)">
<path d="M16.5152 18.026L18.0264 16.5149L14.0326 12.5211V7.55583H11.8738V13.3846L16.5152 18.026ZM12.9532 23.7469C11.46 23.7469 10.0568 23.4635 8.74354 22.8968C7.43026 22.3301 6.28789 21.5611 5.31643 20.5896C4.34497 19.6182 3.5759 18.4758 3.00921 17.1625C2.44252 15.8492 2.15918 14.446 2.15918 12.9528C2.15918 11.4597 2.44252 10.0564 3.00921 8.74317C3.5759 7.4299 4.34497 6.28753 5.31643 5.31607C6.28789 4.3446 7.43026 3.57553 8.74354 3.00884C10.0568 2.44216 11.46 2.15881 12.9532 2.15881C14.4464 2.15881 15.8496 2.44216 17.1629 3.00884C18.4761 3.57553 19.6185 4.3446 20.59 5.31607C21.5614 6.28753 22.3305 7.4299 22.8972 8.74317C23.4639 10.0564 23.7472 11.4597 23.7472 12.9528C23.7472 14.446 23.4639 15.8492 22.8972 17.1625C22.3305 18.4758 21.5614 19.6182 20.59 20.5896C19.6185 21.5611 18.4761 22.3301 17.1629 22.8968C15.8496 23.4635 14.4464 23.7469 12.9532 23.7469ZM12.9532 21.5881C15.3459 21.5881 17.3833 20.747 19.0653 19.065C20.7474 17.3829 21.5884 15.3455 21.5884 12.9528C21.5884 10.5602 20.7474 8.52279 19.0653 6.84072C17.3833 5.15865 15.3459 4.31762 12.9532 4.31762C10.5605 4.31762 8.52316 5.15865 6.84109 6.84072C5.15902 8.52279 4.31798 10.5602 4.31798 12.9528C4.31798 15.3455 5.15902 17.3829 6.84109 19.065C8.52316 20.747 10.5605 21.5881 12.9532 21.5881Z" fill="#1A1A1A"/>
</g>
</svg>
