<svg width="28" height="28" viewBox="0 0 28 28" fill="none" xmlns="http://www.w3.org/2000/svg">
<mask id="mask0_678_1693" style="mask-type:alpha" maskUnits="userSpaceOnUse" x="0" y="0" width="28" height="28">
<rect width="28" height="28" fill="#D9D9D9"/>
</mask>
<g mask="url(#mask0_678_1693)">
<path d="M4.66683 23.3334C4.02516 23.3334 3.47586 23.1049 3.01891 22.6479C2.56197 22.191 2.3335 21.6417 2.3335 21V7.00002C2.3335 6.35835 2.56197 5.80905 3.01891 5.3521C3.47586 4.89516 4.02516 4.66669 4.66683 4.66669H23.3335C23.9752 4.66669 24.5245 4.89516 24.9814 5.3521C25.4384 5.80905 25.6668 6.35835 25.6668 7.00002V21C25.6668 21.6417 25.4384 22.191 24.9814 22.6479C24.5245 23.1049 23.9752 23.3334 23.3335 23.3334H4.66683ZM4.66683 21H12.8335V7.00002H4.66683V21ZM15.1668 21H23.3335V7.00002H15.1668V21ZM5.8335 18.6667H11.6668V16.3334H5.8335V18.6667ZM5.8335 15.1667H11.6668V12.8334H5.8335V15.1667ZM5.8335 11.6667H11.6668V9.33335H5.8335V11.6667ZM16.3335 18.6667H22.1668V16.3334H16.3335V18.6667ZM16.3335 15.1667H22.1668V12.8334H16.3335V15.1667ZM16.3335 11.6667H22.1668V9.33335H16.3335V11.6667Z" fill="#1C1B1F"/>
</g>
</svg>
